<?xml version="1.0" encoding="UTF-8"?>
<!DOCTYPE svg PUBLIC "-//W3C//DTD SVG 1.1//EN" "http://www.w3.org/Graphics/SVG/1.1/DTD/svg11.dtd">
<svg xmlns="http://www.w3.org/2000/svg" version="1.1" width="560px" height="445px" style="shape-rendering:geometricPrecision; text-rendering:geometricPrecision; image-rendering:optimizeQuality; fill-rule:evenodd; clip-rule:evenodd" xmlns:xlink="http://www.w3.org/1999/xlink">
<g><path style="opacity:0.035" fill="#2c5353" d="M 295.5,108.5 C 290.968,108.182 286.634,108.515 282.5,109.5C 281.833,109.5 281.5,109.833 281.5,110.5C 280.833,113.167 280.167,115.833 279.5,118.5C 279.335,115.482 279.502,112.482 280,109.5C 280.5,109 281,108.5 281.5,108C 286.352,107.185 291.019,107.352 295.5,108.5 Z"/></g>
<g><path style="opacity:0.355" fill="#607368" d="M 387.5,107.5 C 388.209,108.404 389.209,108.737 390.5,108.5C 390.5,109.5 390.5,110.5 390.5,111.5C 390.158,112.338 389.492,112.672 388.5,112.5C 388.5,111.5 388.5,110.5 388.5,109.5C 376.322,109.172 364.322,109.505 352.5,110.5C 350.427,112.58 348.093,114.246 345.5,115.5C 347.668,112.5 350.334,110 353.5,108C 364.92,107.748 376.253,107.582 387.5,107.5 Z"/></g>
<g><path style="opacity:0.227" fill="#2d515b" d="M 387.5,107.5 C 389.144,107.286 390.644,107.62 392,108.5C 392.585,109.998 392.085,110.998 390.5,111.5C 390.5,110.5 390.5,109.5 390.5,108.5C 389.209,108.737 388.209,108.404 387.5,107.5 Z"/></g>
<g><path style="opacity:0.047" fill="#55635b" d="M 233.5,109.5 C 236.495,109.294 239.162,109.96 241.5,111.5C 239.833,111.5 238.167,111.5 236.5,111.5C 235.5,110.833 234.5,110.167 233.5,109.5 Z"/></g>
<g><path style="opacity:0.953" fill="#d8b675" d="M 352.5,110.5 C 364.322,109.505 376.322,109.172 388.5,109.5C 388.5,110.5 388.5,111.5 388.5,112.5C 388.5,113.167 388.167,113.5 387.5,113.5C 387.167,113.5 386.833,113.5 386.5,113.5C 386.5,112.5 386.5,111.5 386.5,110.5C 375.167,110.5 363.833,110.5 352.5,110.5 Z"/></g>
<g><path style="opacity:1" fill="#f5bd63" d="M 236.5,111.5 C 238.167,111.5 239.833,111.5 241.5,111.5C 242.833,112.5 244.167,113.5 245.5,114.5C 231.705,111.349 217.705,110.849 203.5,113C 204.731,114.183 204.731,115.349 203.5,116.5C 201.045,117.315 198.711,118.315 196.5,119.5C 195.311,119.244 194.144,118.911 193,118.5C 190.35,119.673 187.85,121.006 185.5,122.5C 187.004,120.164 189.004,118.331 191.5,117C 196.117,114.854 200.784,113.02 205.5,111.5C 215.826,110.229 226.159,110.229 236.5,111.5 Z"/></g>
<g><path style="opacity:0.894" fill="#a3976f" d="M 233.5,109.5 C 234.5,110.167 235.5,110.833 236.5,111.5C 226.159,110.229 215.826,110.229 205.5,111.5C 206.167,110.833 206.833,110.167 207.5,109.5C 216.265,108.185 224.932,108.185 233.5,109.5 Z"/></g>
<g><path style="opacity:1" fill="#fcbc59" d="M 312.5,143.5 C 313.609,143.443 314.609,143.11 315.5,142.5C 325.918,133.959 335.918,124.959 345.5,115.5C 348.093,114.246 350.427,112.58 352.5,110.5C 363.833,110.5 375.167,110.5 386.5,110.5C 386.5,111.5 386.5,112.5 386.5,113.5C 380.871,117.461 375.871,122.127 371.5,127.5C 367.914,128.75 365.248,131.084 363.5,134.5C 363.5,135.167 363.167,135.5 362.5,135.5C 361.391,135.557 360.391,135.89 359.5,136.5C 355.584,134.737 353.917,136.071 354.5,140.5C 353.167,140.5 351.833,140.5 350.5,140.5C 349.833,142.5 349.167,144.5 348.5,146.5C 348.167,147.167 347.833,147.833 347.5,148.5C 344.19,150.146 341.523,152.48 339.5,155.5C 336.236,157.094 333.569,159.427 331.5,162.5C 328.035,163.902 325.368,166.236 323.5,169.5C 319.87,172.117 316.203,174.784 312.5,177.5C 304.766,184.904 297.099,192.237 289.5,199.5C 285.518,202.476 281.518,205.476 277.5,208.5C 275.678,205.893 276.178,203.893 279,202.5C 279.333,203.167 279.667,203.833 280,204.5C 282.806,200.028 286.306,196.194 290.5,193C 289.567,190.182 287.567,189.016 284.5,189.5C 284.5,188.5 284.5,187.5 284.5,186.5C 286.144,186.286 287.644,186.62 289,187.5C 290.473,184.363 292.639,181.863 295.5,180C 295.167,179.5 294.833,179 294.5,178.5C 292.513,180.327 290.179,181.327 287.5,181.5C 287.36,179.876 288.027,178.71 289.5,178C 287.75,176.246 287.083,174.079 287.5,171.5C 286.325,171.281 285.325,171.614 284.5,172.5C 286.034,176.098 284.868,178.432 281,179.5C 280.5,179.167 280,178.833 279.5,178.5C 280.167,177.833 280.833,177.167 281.5,176.5C 281.167,176.167 280.833,175.833 280.5,175.5C 278.96,177.387 277.293,179.22 275.5,181C 278.076,181.782 280.076,183.282 281.5,185.5C 281,185.833 280.5,186.167 280,186.5C 278.418,184.971 276.585,184.471 274.5,185C 273.335,186.084 272.002,186.917 270.5,187.5C 269.571,188.689 269.238,190.022 269.5,191.5C 266.795,191.38 266.128,192.38 267.5,194.5C 264.94,196.223 262.94,198.39 261.5,201C 258.743,201.782 256.243,201.282 254,199.5C 248.935,201.664 243.768,203.33 238.5,204.5C 240.076,203.857 241.41,202.857 242.5,201.5C 244.38,201.771 245.713,201.104 246.5,199.5C 248.38,199.771 249.713,199.104 250.5,197.5C 257.336,194.338 263.003,189.671 267.5,183.5C 271.815,180.191 276.148,176.857 280.5,173.5C 282.489,152.86 283.155,131.86 282.5,110.5C 292.083,110.182 301.583,110.515 311,111.5C 311.17,122.341 311.67,133.008 312.5,143.5 Z"/></g>
<g><path style="opacity:1" fill="#fcbd57" d="M 245.5,114.5 C 248.996,117.656 252.996,119.989 257.5,121.5C 258.5,121.833 259.167,122.5 259.5,123.5C 260.615,125.307 261.281,127.307 261.5,129.5C 261.43,130.772 261.097,131.938 260.5,133C 261.784,133.684 262.951,133.517 264,132.5C 265.55,133.591 266.717,134.924 267.5,136.5C 268.167,136.5 268.5,136.833 268.5,137.5C 269.589,145.781 270.256,154.114 270.5,162.5C 270.5,163.5 270.5,164.5 270.5,165.5C 267.529,168.808 264.529,172.141 261.5,175.5C 260.486,176.674 259.153,177.34 257.5,177.5C 254.167,177.5 250.833,177.5 247.5,177.5C 235.167,177.5 222.833,177.5 210.5,177.5C 210.5,171.5 210.5,165.5 210.5,159.5C 222.678,159.828 234.678,159.495 246.5,158.5C 247.917,155.66 247.584,152.993 245.5,150.5C 245.6,147.892 244.933,145.558 243.5,143.5C 242.136,140.62 240.136,138.12 237.5,136C 238.167,135.667 238.833,135.333 239.5,135C 230.755,132.635 221.922,132.135 213,133.5C 209.894,133.085 209.728,132.085 212.5,130.5C 211.667,130.167 210.833,129.833 210,129.5C 206.98,132.376 203.314,134.376 199,135.5C 198.568,136.6 199.068,137.267 200.5,137.5C 201.554,137.32 202.554,136.987 203.5,136.5C 204.519,138.46 204.519,140.46 203.5,142.5C 203.5,143.167 203.5,143.833 203.5,144.5C 201.684,146.118 200.351,148.118 199.5,150.5C 198.566,151.568 198.232,152.901 198.5,154.5C 197.883,154.611 197.383,154.944 197,155.5C 196.168,165.184 196.335,174.851 197.5,184.5C 197.938,187.295 198.938,189.628 200.5,191.5C 201.167,191.833 201.833,192.167 202.5,192.5C 202.241,194.989 203.241,196.656 205.5,197.5C 206.973,200.921 209.639,202.921 213.5,203.5C 214.514,204.674 215.847,205.34 217.5,205.5C 223.319,206.653 229.319,206.819 235.5,206C 236.416,205.722 237.082,205.222 237.5,204.5C 237.833,204.5 238.167,204.5 238.5,204.5C 243.768,203.33 248.935,201.664 254,199.5C 256.243,201.282 258.743,201.782 261.5,201C 262.94,198.39 264.94,196.223 267.5,194.5C 266.128,192.38 266.795,191.38 269.5,191.5C 269.238,190.022 269.571,188.689 270.5,187.5C 272.002,186.917 273.335,186.084 274.5,185C 276.585,184.471 278.418,184.971 280,186.5C 280.5,186.167 281,185.833 281.5,185.5C 280.076,183.282 278.076,181.782 275.5,181C 277.293,179.22 278.96,177.387 280.5,175.5C 280.833,175.833 281.167,176.167 281.5,176.5C 280.833,177.167 280.167,177.833 279.5,178.5C 280,178.833 280.5,179.167 281,179.5C 284.868,178.432 286.034,176.098 284.5,172.5C 285.325,171.614 286.325,171.281 287.5,171.5C 287.083,174.079 287.75,176.246 289.5,178C 288.027,178.71 287.36,179.876 287.5,181.5C 290.179,181.327 292.513,180.327 294.5,178.5C 294.833,179 295.167,179.5 295.5,180C 292.639,181.863 290.473,184.363 289,187.5C 287.644,186.62 286.144,186.286 284.5,186.5C 284.5,187.5 284.5,188.5 284.5,189.5C 287.567,189.016 289.567,190.182 290.5,193C 286.306,196.194 282.806,200.028 280,204.5C 279.667,203.833 279.333,203.167 279,202.5C 276.178,203.893 275.678,205.893 277.5,208.5C 275.374,210.854 273.374,213.187 271.5,215.5C 266.991,217.919 262.658,220.586 258.5,223.5C 256.447,223.402 254.78,224.069 253.5,225.5C 250.721,225.279 248.054,225.612 245.5,226.5C 229.506,229.127 213.506,229.127 197.5,226.5C 196.833,225.833 196.167,225.167 195.5,224.5C 194.817,222.824 193.483,222.157 191.5,222.5C 191.5,221.5 191.5,220.5 191.5,219.5C 190.127,219.657 188.793,219.49 187.5,219C 184.334,214.554 180.667,210.72 176.5,207.5C 175.684,202.882 174.351,198.382 172.5,194C 173.45,191.765 173.45,189.598 172.5,187.5C 171.808,188.025 171.308,188.692 171,189.5C 170.817,186.635 170.317,183.969 169.5,181.5C 168.507,173.016 168.174,164.349 168.5,155.5C 168.963,152.518 169.296,149.518 169.5,146.5C 170.313,144.739 171.313,143.072 172.5,141.5C 175.391,137.518 177.724,133.185 179.5,128.5C 181.215,126.118 183.215,124.118 185.5,122.5C 187.85,121.006 190.35,119.673 193,118.5C 194.144,118.911 195.311,119.244 196.5,119.5C 198.711,118.315 201.045,117.315 203.5,116.5C 204.731,115.349 204.731,114.183 203.5,113C 217.705,110.849 231.705,111.349 245.5,114.5 Z"/></g>
<g><path style="opacity:0.188" fill="#5f6c5c" d="M 241.5,111.5 C 247.016,112.258 251.683,114.591 255.5,118.5C 252.167,117.167 248.833,115.833 245.5,114.5C 244.167,113.5 242.833,112.5 241.5,111.5 Z"/></g>
<g><path style="opacity:0.387" fill="#636b62" d="M 281.5,110.5 C 281.821,131.576 281.488,152.576 280.5,173.5C 276.148,176.857 271.815,180.191 267.5,183.5C 270.832,179.336 274.665,175.669 279,172.5C 279.5,154.503 279.667,136.503 279.5,118.5C 280.167,115.833 280.833,113.167 281.5,110.5 Z"/></g>
<g><path style="opacity:1" fill="#e2bc75" d="M 245.5,114.5 C 248.833,115.833 252.167,117.167 255.5,118.5C 256.167,119.5 256.833,120.5 257.5,121.5C 252.996,119.989 248.996,117.656 245.5,114.5 Z"/></g>
<g><path style="opacity:0.02" fill="#586963" d="M 255.5,118.5 C 259.5,120.5 262.5,123.5 264.5,127.5C 262.833,126.167 261.167,124.833 259.5,123.5C 259.167,122.5 258.5,121.833 257.5,121.5C 256.833,120.5 256.167,119.5 255.5,118.5 Z"/></g>
<g><path style="opacity:0.176" fill="#677565" d="M 386.5,113.5 C 386.833,113.5 387.167,113.5 387.5,113.5C 382.488,118.51 377.155,123.177 371.5,127.5C 375.871,122.127 380.871,117.461 386.5,113.5 Z"/></g>
<g><path style="opacity:0.627" fill="#7d7f65" d="M 207.5,109.5 C 206.833,110.167 206.167,110.833 205.5,111.5C 200.784,113.02 196.117,114.854 191.5,117C 189.004,118.331 187.004,120.164 185.5,122.5C 183.215,124.118 181.215,126.118 179.5,128.5C 178.833,128.833 178.167,129.167 177.5,129.5C 184.481,118.553 194.481,111.887 207.5,109.5 Z"/></g>
<g><path style="opacity:0.114" fill="#52635d" d="M 315.5,141.5 C 315.5,141.833 315.5,142.167 315.5,142.5C 314.609,143.11 313.609,143.443 312.5,143.5C 312.5,132.167 312.5,120.833 312.5,109.5C 302.5,109.5 292.5,109.5 282.5,109.5C 286.634,108.515 290.968,108.182 295.5,108.5C 301.262,108.28 306.929,108.28 312.5,108.5C 312.846,119.864 313.846,130.864 315.5,141.5 Z"/></g>
<g><path style="opacity:0.431" fill="#727665" d="M 345.5,115.5 C 335.918,124.959 325.918,133.959 315.5,142.5C 315.5,142.167 315.5,141.833 315.5,141.5C 325.117,132.363 335.117,123.697 345.5,115.5 Z"/></g>
<g><path style="opacity:0.463" fill="#6b705e" d="M 371.5,127.5 C 369.431,130.573 366.764,132.906 363.5,134.5C 365.248,131.084 367.914,128.75 371.5,127.5 Z"/></g>
<g><path style="opacity:1" fill="#e8b868" d="M 259.5,123.5 C 261.167,124.833 262.833,126.167 264.5,127.5C 264.75,129.674 265.75,131.341 267.5,132.5C 267.5,133.833 267.5,135.167 267.5,136.5C 266.717,134.924 265.55,133.591 264,132.5C 262.951,133.517 261.784,133.684 260.5,133C 261.097,131.938 261.43,130.772 261.5,129.5C 261.281,127.307 260.615,125.307 259.5,123.5 Z"/></g>
<g><path style="opacity:0.149" fill="#556c65" d="M 264.5,127.5 C 266.25,128.659 267.25,130.326 267.5,132.5C 265.75,131.341 264.75,129.674 264.5,127.5 Z"/></g>
<g><path style="opacity:0.247" fill="#5f6d5b" d="M 177.5,129.5 C 177.573,131.027 176.906,132.027 175.5,132.5C 175.427,130.973 176.094,129.973 177.5,129.5 Z"/></g>
<g><path style="opacity:1" fill="#f6bc61" d="M 243.5,143.5 C 241.427,141.42 239.093,139.754 236.5,138.5C 236.423,137.25 235.756,136.417 234.5,136C 232.866,135.506 231.199,135.34 229.5,135.5C 219.332,131.544 210.666,133.878 203.5,142.5C 204.519,140.46 204.519,138.46 203.5,136.5C 202.554,136.987 201.554,137.32 200.5,137.5C 199.068,137.267 198.568,136.6 199,135.5C 203.314,134.376 206.98,132.376 210,129.5C 210.833,129.833 211.667,130.167 212.5,130.5C 209.728,132.085 209.894,133.085 213,133.5C 221.922,132.135 230.755,132.635 239.5,135C 238.833,135.333 238.167,135.667 237.5,136C 240.136,138.12 242.136,140.62 243.5,143.5 Z"/></g>
<g><path style="opacity:0.761" fill="#7c7d65" d="M 229.5,135.5 C 231.199,135.34 232.866,135.506 234.5,136C 235.756,136.417 236.423,137.25 236.5,138.5C 233.982,137.736 231.649,136.736 229.5,135.5 Z"/></g>
<g><path style="opacity:0.569" fill="#63796f" d="M 267.5,132.5 C 268.931,133.78 269.598,135.447 269.5,137.5C 269.167,137.5 268.833,137.5 268.5,137.5C 268.5,136.833 268.167,136.5 267.5,136.5C 267.5,135.167 267.5,133.833 267.5,132.5 Z"/></g>
<g><path style="opacity:0.369" fill="#6a7665" d="M 362.5,135.5 C 360.761,138.243 358.427,140.243 355.5,141.5C 356.46,139.539 357.793,137.873 359.5,136.5C 360.391,135.89 361.391,135.557 362.5,135.5 Z"/></g>
<g><path style="opacity:1" fill="#dcb772" d="M 179.5,128.5 C 177.724,133.185 175.391,137.518 172.5,141.5C 173.302,138.426 174.302,135.426 175.5,132.5C 176.906,132.027 177.573,131.027 177.5,129.5C 178.167,129.167 178.833,128.833 179.5,128.5 Z"/></g>
<g><path style="opacity:0.522" fill="#747d64" d="M 229.5,135.5 C 219.084,133.749 210.418,136.749 203.5,144.5C 203.5,143.833 203.5,143.167 203.5,142.5C 210.666,133.878 219.332,131.544 229.5,135.5 Z"/></g>
<g><path style="opacity:0.482" fill="#5f695b" d="M 175.5,132.5 C 174.302,135.426 173.302,138.426 172.5,141.5C 171.313,143.072 170.313,144.739 169.5,146.5C 170.157,141.176 172.157,136.51 175.5,132.5 Z"/></g>
<g><path style="opacity:1" fill="#ebba69" d="M 359.5,136.5 C 357.793,137.873 356.46,139.539 355.5,141.5C 352.907,142.754 350.573,144.42 348.5,146.5C 349.167,144.5 349.833,142.5 350.5,140.5C 351.833,140.5 353.167,140.5 354.5,140.5C 353.917,136.071 355.584,134.737 359.5,136.5 Z"/></g>
<g><path style="opacity:0.216" fill="#546758" d="M 269.5,137.5 C 270.924,139.515 271.59,141.848 271.5,144.5C 269.837,142.562 269.171,140.228 269.5,137.5 Z"/></g>
<g><path style="opacity:0.196" fill="#5f6e64" d="M 236.5,138.5 C 239.093,139.754 241.427,141.42 243.5,143.5C 244.933,145.558 245.6,147.892 245.5,150.5C 243.301,145.958 240.301,141.958 236.5,138.5 Z"/></g>
<g><path style="opacity:0.059" fill="#56685e" d="M 355.5,141.5 C 353.431,144.573 350.764,146.906 347.5,148.5C 347.833,147.833 348.167,147.167 348.5,146.5C 350.573,144.42 352.907,142.754 355.5,141.5 Z"/></g>
<g><path style="opacity:0.952" fill="#d0b073" d="M 282.5,109.5 C 292.5,109.5 302.5,109.5 312.5,109.5C 312.5,120.833 312.5,132.167 312.5,143.5C 311.67,133.008 311.17,122.341 311,111.5C 301.583,110.515 292.083,110.182 282.5,110.5C 283.155,131.86 282.489,152.86 280.5,173.5C 281.488,152.576 281.821,131.576 281.5,110.5C 281.5,109.833 281.833,109.5 282.5,109.5 Z"/></g>
<g><path style="opacity:0.439" fill="#576e61" d="M 169.5,146.5 C 169.296,149.518 168.963,152.518 168.5,155.5C 168.167,155.5 167.833,155.5 167.5,155.5C 167.42,152.219 168.087,149.219 169.5,146.5 Z"/></g>
<g><path style="opacity:0.153" fill="#4f6158" d="M 203.5,144.5 C 201.441,149.42 200.108,154.42 199.5,159.5C 199.5,156.5 199.5,153.5 199.5,150.5C 200.351,148.118 201.684,146.118 203.5,144.5 Z"/></g>
<g><path style="opacity:0.055" fill="#5a685e" d="M 347.5,148.5 C 345.431,151.573 342.764,153.906 339.5,155.5C 341.523,152.48 344.19,150.146 347.5,148.5 Z"/></g>
<g><path style="opacity:0.565" fill="#63766b" d="M 271.5,145.5 C 274.407,152.332 274.074,158.999 270.5,165.5C 270.5,164.5 270.5,163.5 270.5,162.5C 271.489,157.025 271.822,151.358 271.5,145.5 Z"/></g>
<g><path style="opacity:1" fill="#d7b370" d="M 268.5,137.5 C 268.833,137.5 269.167,137.5 269.5,137.5C 269.171,140.228 269.837,142.562 271.5,144.5C 271.5,144.833 271.5,145.167 271.5,145.5C 271.822,151.358 271.489,157.025 270.5,162.5C 270.256,154.114 269.589,145.781 268.5,137.5 Z"/></g>
<g><path style="opacity:0.938" fill="#d3b879" d="M 246.5,158.5 C 234.678,159.495 222.678,159.828 210.5,159.5C 210.5,165.5 210.5,171.5 210.5,177.5C 222.833,177.5 235.167,177.5 247.5,177.5C 235.011,178.495 222.344,178.829 209.5,178.5C 209.5,171.833 209.5,165.167 209.5,158.5C 221.833,158.5 234.167,158.5 246.5,158.5 Z"/></g>
<g><path style="opacity:0.063" fill="#636c60" d="M 339.5,155.5 C 337.431,158.573 334.764,160.906 331.5,162.5C 333.569,159.427 336.236,157.094 339.5,155.5 Z"/></g>
<g><path style="opacity:1" fill="#e9ba69" d="M 198.5,154.5 C 198.118,166.92 198.785,179.253 200.5,191.5C 198.938,189.628 197.938,187.295 197.5,184.5C 196.335,174.851 196.168,165.184 197,155.5C 197.383,154.944 197.883,154.611 198.5,154.5 Z"/></g>
<g><path style="opacity:0.439" fill="#6f765f" d="M 331.5,162.5 C 329.431,165.573 326.764,167.906 323.5,169.5C 325.368,166.236 328.035,163.902 331.5,162.5 Z"/></g>
<g><path style="opacity:0.776" fill="#aa9470" d="M 348.5,163.5 C 349.167,163.833 349.833,164.167 350.5,164.5C 351.338,164.842 351.672,165.508 351.5,166.5C 351.5,167.167 351.5,167.833 351.5,168.5C 350.11,167.101 349.11,165.434 348.5,163.5 Z"/></g>
<g><path style="opacity:0.251" fill="#526864" d="M 167.5,156.5 C 167.334,165.506 167.5,174.506 168,183.5C 168.21,185.058 168.71,186.391 169.5,187.5C 169.5,189.5 169.5,191.5 169.5,193.5C 168.239,190.742 167.406,187.742 167,184.5C 166.176,174.991 166.342,165.657 167.5,156.5 Z"/></g>
<g><path style="opacity:0.89" fill="#bfa96e" d="M 167.5,155.5 C 167.833,155.5 168.167,155.5 168.5,155.5C 168.174,164.349 168.507,173.016 169.5,181.5C 169.5,183.5 169.5,185.5 169.5,187.5C 168.71,186.391 168.21,185.058 168,183.5C 167.5,174.506 167.334,165.506 167.5,156.5C 167.5,156.167 167.5,155.833 167.5,155.5 Z"/></g>
<g><path style="opacity:1" fill="#fcbc58" d="M 348.5,163.5 C 349.11,165.434 350.11,167.101 351.5,168.5C 354.598,174.372 357.931,180.038 361.5,185.5C 362.136,187.795 363.469,189.461 365.5,190.5C 365.343,191.873 365.51,193.207 366,194.5C 371.05,202.715 375.884,211.048 380.5,219.5C 381.388,222.714 382.721,225.714 384.5,228.5C 373.167,228.5 361.833,228.5 350.5,228.5C 350.144,226.81 349.144,225.81 347.5,225.5C 340.5,212.833 333.5,200.167 326.5,187.5C 326.523,185.4 325.856,183.567 324.5,182C 325.985,179.683 327.652,177.516 329.5,175.5C 334.425,170.682 339.425,165.849 344.5,161C 346.945,160.09 348.278,160.924 348.5,163.5 Z"/></g>
<g><path style="opacity:0.153" fill="#465248" d="M 351.5,166.5 C 352.906,166.973 353.573,167.973 353.5,169.5C 352.833,169.167 352.167,168.833 351.5,168.5C 351.5,167.833 351.5,167.167 351.5,166.5 Z"/></g>
<g><path style="opacity:0.405" fill="#787a60" d="M 199.5,150.5 C 199.5,153.5 199.5,156.5 199.5,159.5C 198.999,170.668 199.999,181.668 202.5,192.5C 201.833,192.167 201.167,191.833 200.5,191.5C 198.785,179.253 198.118,166.92 198.5,154.5C 198.232,152.901 198.566,151.568 199.5,150.5 Z"/></g>
<g><path style="opacity:0.141" fill="#627062" d="M 270.5,165.5 C 268.895,170.104 265.895,173.438 261.5,175.5C 264.529,172.141 267.529,168.808 270.5,165.5 Z"/></g>
<g><path style="opacity:0.396" fill="#657364" d="M 350.5,164.5 C 349.833,164.167 349.167,163.833 348.5,163.5C 348.278,160.924 346.945,160.09 344.5,161C 339.425,165.849 334.425,170.682 329.5,175.5C 325.726,176.938 323.393,179.605 322.5,183.5C 321.733,182.828 321.066,181.995 320.5,181C 328.5,173.667 336.5,166.333 344.5,159C 348.144,158.802 350.144,160.635 350.5,164.5 Z"/></g>
<g><path style="opacity:0.718" fill="#8c8a68" d="M 351.5,168.5 C 352.167,168.833 352.833,169.167 353.5,169.5C 356.669,173.833 359.336,178.5 361.5,183.5C 361.5,184.167 361.5,184.833 361.5,185.5C 357.931,180.038 354.598,174.372 351.5,168.5 Z"/></g>
<g><path style="opacity:0.247" fill="#68705d" d="M 245.5,150.5 C 247.584,152.993 247.917,155.66 246.5,158.5C 234.167,158.5 221.833,158.5 209.5,158.5C 209.5,165.167 209.5,171.833 209.5,178.5C 222.344,178.829 235.011,178.495 247.5,177.5C 250.833,177.5 254.167,177.5 257.5,177.5C 256.737,178.268 255.737,178.768 254.5,179C 239.167,179.667 223.833,179.667 208.5,179C 208.051,171.921 208.051,164.754 208.5,157.5C 220.838,157.667 233.171,157.5 245.5,157C 245.986,154.973 245.986,152.807 245.5,150.5 Z"/></g>
<g><path style="opacity:1" fill="#dfb873" d="M 329.5,175.5 C 327.652,177.516 325.985,179.683 324.5,182C 325.856,183.567 326.523,185.4 326.5,187.5C 325.527,185.861 324.194,184.527 322.5,183.5C 323.393,179.605 325.726,176.938 329.5,175.5 Z"/></g>
<g><path style="opacity:0.133" fill="#405048" d="M 361.5,183.5 C 362.906,183.973 363.573,184.973 363.5,186.5C 362.833,186.167 362.167,185.833 361.5,185.5C 361.5,184.833 361.5,184.167 361.5,183.5 Z"/></g>
<g><path style="opacity:0.431" fill="#747965" d="M 267.5,183.5 C 263.003,189.671 257.336,194.338 250.5,197.5C 256.161,192.84 261.828,188.173 267.5,183.5 Z"/></g>
<g><path style="opacity:1" fill="#eaba67" d="M 169.5,181.5 C 170.317,183.969 170.817,186.635 171,189.5C 171.308,188.692 171.808,188.025 172.5,187.5C 173.45,189.598 173.45,191.765 172.5,194C 174.351,198.382 175.684,202.882 176.5,207.5C 173.878,203.252 171.545,198.919 169.5,194.5C 169.5,194.167 169.5,193.833 169.5,193.5C 169.5,191.5 169.5,189.5 169.5,187.5C 169.5,185.5 169.5,183.5 169.5,181.5 Z"/></g>
<g><path style="opacity:0.827" fill="#908c6b" d="M 361.5,185.5 C 362.167,185.833 362.833,186.167 363.5,186.5C 364.674,187.514 365.34,188.847 365.5,190.5C 363.469,189.461 362.136,187.795 361.5,185.5 Z"/></g>
<g><path style="opacity:0.161" fill="#677261" d="M 323.5,169.5 C 321.038,172.464 318.371,175.297 315.5,178C 306.941,185.402 298.274,192.568 289.5,199.5C 297.099,192.237 304.766,184.904 312.5,177.5C 316.203,174.784 319.87,172.117 323.5,169.5 Z"/></g>
<g><path style="opacity:0.247" fill="#63715f" d="M 322.5,183.5 C 324.194,184.527 325.527,185.861 326.5,187.5C 333.5,200.167 340.5,212.833 347.5,225.5C 338.378,212.028 330.045,198.028 322.5,183.5 Z"/></g>
<g><path style="opacity:0.239" fill="#73715d" d="M 202.5,192.5 C 203.89,193.899 204.89,195.566 205.5,197.5C 203.241,196.656 202.241,194.989 202.5,192.5 Z"/></g>
<g><path style="opacity:1" fill="#fcbd58" d="M 282.5,216.5 C 289.42,209.704 296.753,203.371 304.5,197.5C 306.716,196.797 308.549,195.464 310,193.5C 310.5,205.162 310.667,216.829 310.5,228.5C 301.167,228.5 291.833,228.5 282.5,228.5C 282.5,224.5 282.5,220.5 282.5,216.5 Z"/></g>
<g><path style="opacity:0.208" fill="#586552" d="M 250.5,197.5 C 249.713,199.104 248.38,199.771 246.5,199.5C 247.514,198.326 248.847,197.66 250.5,197.5 Z"/></g>
<g><path style="opacity:0.286" fill="#616a5a" d="M 205.5,197.5 C 208.473,199.147 211.14,201.147 213.5,203.5C 209.639,202.921 206.973,200.921 205.5,197.5 Z"/></g>
<g><path style="opacity:0.169" fill="#536566" d="M 246.5,199.5 C 245.713,201.104 244.38,201.771 242.5,201.5C 243.514,200.326 244.847,199.66 246.5,199.5 Z"/></g>
<g><path style="opacity:0.059" fill="#385657" d="M 313.5,229.5 C 313.167,229.5 312.833,229.5 312.5,229.5C 312.832,216.483 312.499,203.483 311.5,190.5C 310.893,190.624 310.56,190.957 310.5,191.5C 310.167,191.5 309.833,191.5 309.5,191.5C 309.167,191.5 308.833,191.5 308.5,191.5C 309.635,189.787 311.302,189.12 313.5,189.5C 313.5,202.833 313.5,216.167 313.5,229.5 Z"/></g>
<g><path style="opacity:0.239" fill="#606d60" d="M 169.5,194.5 C 171.545,198.919 173.878,203.252 176.5,207.5C 179.404,212.741 183.071,217.407 187.5,221.5C 177.793,215.116 171.793,206.116 169.5,194.5 Z"/></g>
<g><path style="opacity:0.024" fill="#465f5d" d="M 242.5,201.5 C 241.41,202.857 240.076,203.857 238.5,204.5C 238.167,204.5 237.833,204.5 237.5,204.5C 230.869,205.331 224.202,205.664 217.5,205.5C 215.847,205.34 214.514,204.674 213.5,203.5C 223.343,205.197 233.01,204.531 242.5,201.5 Z"/></g>
<g><path style="opacity:1" fill="#c8ac6f" d="M 237.5,204.5 C 237.082,205.222 236.416,205.722 235.5,206C 229.319,206.819 223.319,206.653 217.5,205.5C 224.202,205.664 230.869,205.331 237.5,204.5 Z"/></g>
<g><path style="opacity:0.824" fill="#8c8a6c" d="M 365.5,190.5 C 372.668,201.496 379.334,212.83 385.5,224.5C 383.833,222.833 382.167,221.167 380.5,219.5C 375.884,211.048 371.05,202.715 366,194.5C 365.51,193.207 365.343,191.873 365.5,190.5 Z"/></g>
<g><path style="opacity:0.621" fill="#989573" d="M 310.5,191.5 C 310.56,190.957 310.893,190.624 311.5,190.5C 312.499,203.483 312.832,216.483 312.5,229.5C 312.167,229.5 311.833,229.5 311.5,229.5C 311.829,216.656 311.495,203.989 310.5,191.5 Z"/></g>
<g><path style="opacity:1" fill="#eabe6c" d="M 176.5,207.5 C 180.667,210.72 184.334,214.554 187.5,219C 188.793,219.49 190.127,219.657 191.5,219.5C 191.5,220.5 191.5,221.5 191.5,222.5C 193.483,222.157 194.817,222.824 195.5,224.5C 194.167,224.5 192.833,224.5 191.5,224.5C 190.738,222.738 189.404,221.738 187.5,221.5C 183.071,217.407 179.404,212.741 176.5,207.5 Z"/></g>
<g><path style="opacity:0.02" fill="#5c7163" d="M 289.5,199.5 C 283.823,205.176 277.823,210.509 271.5,215.5C 273.374,213.187 275.374,210.854 277.5,208.5C 281.518,205.476 285.518,202.476 289.5,199.5 Z"/></g>
<g><path style="opacity:0.094" fill="#5c685e" d="M 271.5,215.5 C 268.012,219.417 263.679,222.083 258.5,223.5C 262.658,220.586 266.991,217.919 271.5,215.5 Z"/></g>
<g><path style="opacity:0.553" fill="#676f5a" d="M 187.5,221.5 C 189.404,221.738 190.738,222.738 191.5,224.5C 189.596,224.262 188.262,223.262 187.5,221.5 Z"/></g>
<g><path style="opacity:0.235" fill="#526a5f" d="M 258.5,223.5 C 257.22,224.931 255.553,225.598 253.5,225.5C 254.78,224.069 256.447,223.402 258.5,223.5 Z"/></g>
<g><path style="opacity:0.886" fill="#7f8163" d="M 191.5,224.5 C 192.833,224.5 194.167,224.5 195.5,224.5C 196.167,225.167 196.833,225.833 197.5,226.5C 197.5,226.833 197.5,227.167 197.5,227.5C 195.181,227.008 193.181,226.008 191.5,224.5 Z"/></g>
<g><path style="opacity:0.694" fill="#928b6a" d="M 253.5,225.5 C 252.22,226.931 250.553,227.598 248.5,227.5C 247.5,227.5 246.5,227.5 245.5,227.5C 245.5,227.167 245.5,226.833 245.5,226.5C 248.054,225.612 250.721,225.279 253.5,225.5 Z"/></g>
<g><path style="opacity:0.557" fill="#5c6d60" d="M 197.5,227.5 C 201.427,227.926 205.093,228.926 208.5,230.5C 204.466,230.483 200.799,229.483 197.5,227.5 Z"/></g>
<g><path style="opacity:0.098" fill="#52625c" d="M 245.5,227.5 C 246.5,227.5 247.5,227.5 248.5,227.5C 242.493,229.836 236.159,231.169 229.5,231.5C 230.833,230.833 232.167,230.167 233.5,229.5C 237.618,229.47 241.618,228.803 245.5,227.5 Z"/></g>
<g><path style="opacity:0.958" fill="#e2bb72" d="M 309.5,191.5 C 309.833,191.5 310.167,191.5 310.5,191.5C 311.495,203.989 311.829,216.656 311.5,229.5C 301.5,229.5 291.5,229.5 281.5,229.5C 281.182,224.968 281.515,220.634 282.5,216.5C 282.5,220.5 282.5,224.5 282.5,228.5C 291.833,228.5 301.167,228.5 310.5,228.5C 310.667,216.829 310.5,205.162 310,193.5C 308.549,195.464 306.716,196.797 304.5,197.5C 306.167,195.5 307.833,193.5 309.5,191.5 Z"/></g>
<g><path style="opacity:1" fill="#e7c173" d="M 380.5,219.5 C 382.167,221.167 383.833,222.833 385.5,224.5C 386.038,226.117 386.371,227.784 386.5,229.5C 374.322,229.828 362.322,229.495 350.5,228.5C 361.833,228.5 373.167,228.5 384.5,228.5C 382.721,225.714 381.388,222.714 380.5,219.5 Z"/></g>
<g><path style="opacity:0.996" fill="#e9bd71" d="M 197.5,227.5 C 197.5,227.167 197.5,226.833 197.5,226.5C 213.506,229.127 229.506,229.127 245.5,226.5C 245.5,226.833 245.5,227.167 245.5,227.5C 241.618,228.803 237.618,229.47 233.5,229.5C 225.195,230.332 216.862,230.665 208.5,230.5C 205.093,228.926 201.427,227.926 197.5,227.5 Z"/></g>
<g><path style="opacity:0.296" fill="#65756a" d="M 308.5,191.5 C 308.833,191.5 309.167,191.5 309.5,191.5C 307.833,193.5 306.167,195.5 304.5,197.5C 296.753,203.371 289.42,209.704 282.5,216.5C 281.515,220.634 281.182,224.968 281.5,229.5C 291.5,229.5 301.5,229.5 311.5,229.5C 311.833,229.5 312.167,229.5 312.5,229.5C 312.833,229.5 313.167,229.5 313.5,229.5C 302.431,230.829 291.265,230.829 280,229.5C 279.19,224.743 279.524,220.076 281,215.5C 290.334,207.664 299.501,199.664 308.5,191.5 Z"/></g>
<g><path style="opacity:0.435" fill="#727f6e" d="M 385.5,224.5 C 387.539,225.911 388.539,227.911 388.5,230.5C 376.628,230.197 364.795,230.531 353,231.5C 349.589,230.923 347.756,228.923 347.5,225.5C 349.144,225.81 350.144,226.81 350.5,228.5C 362.322,229.495 374.322,229.828 386.5,229.5C 386.371,227.784 386.038,226.117 385.5,224.5 Z"/></g>
<g><path style="opacity:0.545" fill="#7e8060" d="M 233.5,229.5 C 232.167,230.167 230.833,230.833 229.5,231.5C 222.329,232.554 215.329,232.221 208.5,230.5C 216.862,230.665 225.195,230.332 233.5,229.5 Z"/></g>
<g><path style="opacity:0.043" fill="#31545c" d="M 314.5,259.5 C 316.628,258.371 318.961,258.204 321.5,259C 322.446,261.298 321.779,263.132 319.5,264.5C 319.5,264.167 319.5,263.833 319.5,263.5C 319.5,263.167 319.5,262.833 319.5,262.5C 320.404,261.791 320.737,260.791 320.5,259.5C 318.5,259.5 316.5,259.5 314.5,259.5 Z"/></g>
<g><path style="opacity:0.024" fill="#4a635f" d="M 172.5,259.5 C 176.889,258.088 181.222,258.588 185.5,261C 186.823,261.816 187.489,262.983 187.5,264.5C 186.5,263.833 185.5,263.167 184.5,262.5C 183.18,261.058 181.514,260.392 179.5,260.5C 177.393,259.532 175.059,259.198 172.5,259.5 Z"/></g>
<g><path style="opacity:0.165" fill="#536559" d="M 124.5,259.5 C 128.537,260.204 130.87,262.537 131.5,266.5C 131.167,266.5 130.833,266.5 130.5,266.5C 129.833,263.833 128.167,262.167 125.5,261.5C 125.167,260.833 124.833,260.167 124.5,259.5 Z"/></g>
<g><path style="opacity:0.137" fill="#5a6a62" d="M 383.5,266.5 C 385.882,268.046 388.549,268.713 391.5,268.5C 391.226,264.052 388.892,261.219 384.5,260C 381.183,259.219 378.183,259.719 375.5,261.5C 373.246,262.415 371.246,263.748 369.5,265.5C 371.857,260.645 375.857,258.312 381.5,258.5C 386.683,258.672 390.516,261.006 393,265.5C 393.244,269.986 391.077,271.486 386.5,270C 385.29,268.961 384.29,267.794 383.5,266.5 Z"/></g>
<g><path style="opacity:0.522" fill="#7f8467" d="M 172.5,259.5 C 175.059,259.198 177.393,259.532 179.5,260.5C 170.618,259.065 165.951,262.732 165.5,271.5C 164.549,270.081 164.216,268.415 164.5,266.5C 165.877,262.795 168.544,260.461 172.5,259.5 Z"/></g>
<g><path style="opacity:0.208" fill="#6e7b66" d="M 314.5,259.5 C 316.5,259.5 318.5,259.5 320.5,259.5C 320.737,260.791 320.404,261.791 319.5,262.5C 319.209,261.351 318.376,260.684 317,260.5C 316.167,260.667 315.333,260.833 314.5,261C 311.914,264.736 309.581,268.57 307.5,272.5C 306.833,272.833 306.167,273.167 305.5,273.5C 305.5,273.167 305.5,272.833 305.5,272.5C 308.143,267.868 311.143,263.535 314.5,259.5 Z"/></g>
<g><path style="opacity:0.455" fill="#627369" d="M 349.5,262.5 C 347.638,260.525 345.638,260.192 343.5,261.5C 342.833,261.5 342.5,261.833 342.5,262.5C 341.5,263.833 340.5,265.167 339.5,266.5C 339.857,261.303 342.524,258.803 347.5,259C 348.823,259.816 349.489,260.983 349.5,262.5 Z"/></g>
<g><path style="opacity:0.443" fill="#767c63" d="M 412.5,259.5 C 415.059,259.198 417.393,259.532 419.5,260.5C 416.391,260.264 413.391,260.597 410.5,261.5C 408.284,262.203 406.451,263.536 405,265.5C 404.341,268.888 404.508,272.221 405.5,275.5C 401.343,270.224 402.01,265.39 407.5,261C 409.025,259.991 410.692,259.491 412.5,259.5 Z"/></g>
<g><path style="opacity:0.31" fill="#6f7561" d="M 481.5,259.5 C 482.123,266.255 481.456,272.588 479.5,278.5C 475.538,273.103 472.038,267.437 469,261.5C 467.301,260.594 465.467,260.261 463.5,260.5C 462.506,270.653 462.172,280.986 462.5,291.5C 464.5,291.5 466.5,291.5 468.5,291.5C 467.883,285.402 468.55,279.735 470.5,274.5C 473.667,278.003 476,282.003 477.5,286.5C 474.777,283.414 472.277,280.08 470,276.5C 469.501,281.823 469.334,287.156 469.5,292.5C 466.894,293.136 464.394,293.136 462,292.5C 461.57,281.795 461.237,271.128 461,260.5C 463.153,258.556 465.653,258.056 468.5,259C 473.119,264.292 476.953,270.125 480,276.5C 480.173,270.652 480.673,264.985 481.5,259.5 Z"/></g>
<g><path style="opacity:1" fill="#e2b86a" d="M 208.5,259.5 C 213.569,258.859 217.903,260.192 221.5,263.5C 219.266,262.553 216.932,261.886 214.5,261.5C 213.5,261.833 212.5,262.167 211.5,262.5C 213.423,263.308 215.423,263.808 217.5,264C 220.447,269 221.114,274.167 219.5,279.5C 219.85,274.969 219.183,270.636 217.5,266.5C 216.688,265.007 215.355,264.34 213.5,264.5C 212.274,264.52 211.274,264.853 210.5,265.5C 209.833,265.5 209.167,265.5 208.5,265.5C 206.923,262.983 205.09,262.983 203,265.5C 200.873,271.953 201.039,278.286 203.5,284.5C 204.167,280.353 204.834,276.353 205.5,272.5C 205.234,276.605 205.734,280.605 207,284.5C 208.011,285.337 209.178,285.67 210.5,285.5C 211.568,286.434 212.901,286.768 214.5,286.5C 214.038,287.88 213.038,288.547 211.5,288.5C 210.167,287.833 208.833,287.167 207.5,286.5C 206.287,286.747 205.62,287.414 205.5,288.5C 204.292,287.766 202.959,287.433 201.5,287.5C 201.769,285.571 201.269,283.905 200,282.5C 198.025,274.073 199.858,266.74 205.5,260.5C 206.209,259.596 207.209,259.263 208.5,259.5 Z"/></g>
<g><path style="opacity:0.094" fill="#3f5e62" d="M 303.5,259.5 C 304.167,263.833 304.833,268.167 305.5,272.5C 305.5,272.833 305.5,273.167 305.5,273.5C 305.44,274.043 305.107,274.376 304.5,274.5C 303.506,269.544 303.173,264.544 303.5,259.5 Z"/></g>
<g><path style="opacity:1" fill="#fabe5c" d="M 375.5,261.5 C 379.582,261.344 383.582,261.844 387.5,263C 389.421,264.241 389.754,265.741 388.5,267.5C 387.158,265.995 385.492,265.328 383.5,265.5C 380.642,264.834 377.642,264.167 374.5,263.5C 374.863,262.817 375.196,262.15 375.5,261.5 Z"/></g>
<g><path style="opacity:1" fill="#f7bd5e" d="M 463.5,260.5 C 465.467,260.261 467.301,260.594 469,261.5C 472.038,267.437 475.538,273.103 479.5,278.5C 479.706,280.549 480.539,280.883 482,279.5C 482.5,273.175 482.666,266.842 482.5,260.5C 483.833,260.5 485.167,260.5 486.5,260.5C 486.666,269.839 486.5,279.173 486,288.5C 484.951,290.107 483.451,290.773 481.5,290.5C 480.833,290.5 480.167,290.5 479.5,290.5C 479.5,290.167 479.5,289.833 479.5,289.5C 479.573,287.973 478.906,286.973 477.5,286.5C 476,282.003 473.667,278.003 470.5,274.5C 470.179,272.952 469.179,272.285 467.5,272.5C 467.5,278.5 467.5,284.5 467.5,290.5C 466.167,290.5 464.833,290.5 463.5,290.5C 463.5,280.5 463.5,270.5 463.5,260.5 Z"/></g>
<g><path style="opacity:0.339" fill="#44606d" d="M 481.5,259.5 C 482.449,258.848 483.615,258.514 485,258.5C 486.658,258.675 487.991,259.342 489,260.5C 489.499,266.157 489.666,271.824 489.5,277.5C 488.833,273.5 488.167,269.5 487.5,265.5C 487.5,263.5 487.5,261.5 487.5,259.5C 485.5,259.5 483.5,259.5 481.5,259.5 Z"/></g>
<g><path style="opacity:0.418" fill="#616e62" d="M 93.5,259.5 C 86.6457,259.176 79.979,259.509 73.5,260.5C 72.3427,269.324 72.176,278.324 73,287.5C 73.6622,288.984 74.4955,290.317 75.5,291.5C 74.5041,291.586 73.6708,291.252 73,290.5C 72.0266,288.608 71.3599,286.608 71,284.5C 70.1971,276.118 70.3638,267.785 71.5,259.5C 78.9898,258.181 86.3231,258.181 93.5,259.5 Z"/></g>
<g><path style="opacity:0.633" fill="#828265" d="M 73.5,260.5 C 79.979,259.509 86.6457,259.176 93.5,259.5C 94.8112,261.56 94.8112,263.726 93.5,266C 88.8452,266.499 84.1785,266.666 79.5,266.5C 79.5,268.167 79.5,269.833 79.5,271.5C 79.5,271.833 79.5,272.167 79.5,272.5C 78.5269,270.052 78.1936,267.385 78.5,264.5C 83.1667,264.5 87.8333,264.5 92.5,264.5C 92.5,263.167 92.5,261.833 92.5,260.5C 86.1667,260.5 79.8333,260.5 73.5,260.5 Z"/></g>
<g><path style="opacity:1" fill="#efba63" d="M 179.5,260.5 C 181.514,260.392 183.18,261.058 184.5,262.5C 185.038,264.117 185.371,265.784 185.5,267.5C 184.167,267.5 182.833,267.5 181.5,267.5C 180.486,266.235 178.986,265.569 177,265.5C 171.754,265.047 170.254,267.214 172.5,272C 177.759,272.248 182.592,273.748 187,276.5C 190.266,283.434 188.433,288.101 181.5,290.5C 176.449,290.958 171.783,289.958 167.5,287.5C 166.699,285.958 166.366,284.292 166.5,282.5C 167.959,282.433 169.292,282.766 170.5,283.5C 173.099,286.429 176.099,287.096 179.5,285.5C 180.496,285.586 181.329,285.252 182,284.5C 182.494,282.866 182.66,281.199 182.5,279.5C 178.109,278.992 173.775,278.158 169.5,277C 167.561,275.568 166.228,273.735 165.5,271.5C 165.951,262.732 170.618,259.065 179.5,260.5 Z"/></g>
<g><path style="opacity:0.302" fill="#55746c" d="M 247.5,263.5 C 249.25,264.659 250.25,266.326 250.5,268.5C 248.75,267.341 247.75,265.674 247.5,263.5 Z"/></g>
<g><path style="opacity:1" fill="#caa969" d="M 375.5,261.5 C 375.196,262.15 374.863,262.817 374.5,263.5C 377.642,264.167 380.642,264.834 383.5,265.5C 375.146,264.433 373.479,267.099 378.5,273.5C 377.417,273.461 376.417,273.127 375.5,272.5C 374.833,270.167 374.167,267.833 373.5,265.5C 370.463,267.98 369.797,270.98 371.5,274.5C 370.833,274.167 370.167,273.833 369.5,273.5C 368.167,270.833 368.167,268.167 369.5,265.5C 371.246,263.748 373.246,262.415 375.5,261.5 Z"/></g>
<g><path style="opacity:0.89" fill="#b7a573" d="M 210.5,265.5 C 211.274,264.853 212.274,264.52 213.5,264.5C 215.355,264.34 216.688,265.007 217.5,266.5C 216.833,266.5 216.167,266.5 215.5,266.5C 214.081,265.549 212.415,265.216 210.5,265.5 Z"/></g>
<g><path style="opacity:0.859" fill="#ccb276" d="M 239.5,260.5 C 239.5,270.5 239.5,280.5 239.5,290.5C 240.5,290.5 241.5,290.5 242.5,290.5C 243.167,284.833 243.833,279.167 244.5,273.5C 244.5,279.5 244.5,285.5 244.5,291.5C 242.5,291.5 240.5,291.5 238.5,291.5C 238.172,280.986 238.506,270.653 239.5,260.5 Z"/></g>
<g><path style="opacity:0.6" fill="#a99665" d="M 297.5,260.5 C 299.265,259.539 301.265,259.205 303.5,259.5C 303.173,264.544 303.506,269.544 304.5,274.5C 305.107,274.376 305.44,274.043 305.5,273.5C 306.167,273.167 306.833,272.833 307.5,272.5C 307.033,275.297 305.367,276.631 302.5,276.5C 302.5,271.167 302.5,265.833 302.5,260.5C 300.833,260.5 299.167,260.5 297.5,260.5 Z"/></g>
<g><path style="opacity:1" fill="#efbc65" d="M 319.5,262.5 C 319.5,262.833 319.5,263.167 319.5,263.5C 318.504,263.414 317.671,263.748 317,264.5C 314.9,267.701 313.067,271.034 311.5,274.5C 313.688,279.555 316.355,284.222 319.5,288.5C 320.478,288.811 321.145,289.478 321.5,290.5C 319.167,291.833 316.833,291.833 314.5,290.5C 312.833,287.833 311.167,285.167 309.5,282.5C 308.311,281.571 306.978,281.238 305.5,281.5C 304.85,281.804 304.183,282.137 303.5,282.5C 302.832,285.306 302.166,287.972 301.5,290.5C 301.334,286.486 301.501,282.486 302,278.5C 302.388,279.428 303.055,280.095 304,280.5C 309.926,279.981 311.759,276.981 309.5,271.5C 308.817,271.863 308.15,272.196 307.5,272.5C 309.581,268.57 311.914,264.736 314.5,261C 315.333,260.833 316.167,260.667 317,260.5C 318.376,260.684 319.209,261.351 319.5,262.5 Z"/></g>
<g><path style="opacity:1" fill="#f5bb5d" d="M 343.5,261.5 C 344.5,261.5 345.5,261.5 346.5,261.5C 346.579,263.666 347.246,265.666 348.5,267.5C 348.058,268.739 347.391,269.739 346.5,270.5C 344.973,270.427 343.973,271.094 343.5,272.5C 342.504,272.414 341.671,272.748 341,273.5C 340.833,272.667 340.667,271.833 340.5,271C 341.617,268.269 342.283,265.435 342.5,262.5C 342.5,261.833 342.833,261.5 343.5,261.5 Z"/></g>
<g><path style="opacity:0.043" fill="#51655f" d="M 412.5,259.5 C 420.129,257.314 425.463,259.981 428.5,267.5C 427.663,269.505 426.163,270.505 424,270.5C 421.333,269.167 418.667,267.833 416,266.5C 413.384,266.617 411.884,267.95 411.5,270.5C 410.201,268.847 410.534,267.347 412.5,266C 415.823,265.068 418.823,265.568 421.5,267.5C 422.919,268.451 424.585,268.784 426.5,268.5C 426.337,264 424.004,261.334 419.5,260.5C 417.393,259.532 415.059,259.198 412.5,259.5 Z"/></g>
<g><path style="opacity:1" fill="#f3bc64" d="M 419.5,260.5 C 424.004,261.334 426.337,264 426.5,268.5C 424.585,268.784 422.919,268.451 421.5,267.5C 421.586,266.504 421.252,265.671 420.5,265C 412.19,262.158 408.523,264.992 409.5,273.5C 408.5,273.5 407.5,273.5 406.5,273.5C 405.589,268.633 406.922,264.633 410.5,261.5C 413.391,260.597 416.391,260.264 419.5,260.5 Z"/></g>
<g><path style="opacity:0.459" fill="#606d60" d="M 215.5,266.5 C 216.167,266.5 216.833,266.5 217.5,266.5C 219.183,270.636 219.85,274.969 219.5,279.5C 219.25,281.674 218.25,283.341 216.5,284.5C 218.102,278.338 217.768,272.338 215.5,266.5 Z"/></g>
<g><path style="opacity:0.925" fill="#c7b180" d="M 184.5,262.5 C 185.5,263.167 186.5,263.833 187.5,264.5C 187.5,265.833 187.5,267.167 187.5,268.5C 185.5,268.5 183.5,268.5 181.5,268.5C 181.5,268.167 181.5,267.833 181.5,267.5C 182.833,267.5 184.167,267.5 185.5,267.5C 185.371,265.784 185.038,264.117 184.5,262.5 Z"/></g>
<g><path style="opacity:1" fill="#e0ba72" d="M 383.5,266.5 C 383.5,266.167 383.5,265.833 383.5,265.5C 385.492,265.328 387.158,265.995 388.5,267.5C 389.754,265.741 389.421,264.241 387.5,263C 383.582,261.844 379.582,261.344 375.5,261.5C 378.183,259.719 381.183,259.219 384.5,260C 388.892,261.219 391.226,264.052 391.5,268.5C 388.549,268.713 385.882,268.046 383.5,266.5 Z"/></g>
<g><path style="opacity:0.443" fill="#5f7066" d="M 187.5,264.5 C 190.399,268.005 189.399,270.005 184.5,270.5C 182.97,270.36 181.97,269.693 181.5,268.5C 183.5,268.5 185.5,268.5 187.5,268.5C 187.5,267.167 187.5,265.833 187.5,264.5 Z"/></g>
<g><path style="opacity:0.529" fill="#727c69" d="M 349.5,262.5 C 351.601,265.797 352.935,269.463 353.5,273.5C 350.305,270.596 348.972,266.929 349.5,262.5 Z"/></g>
<g><path style="opacity:0.907" fill="#d0b376" d="M 463.5,260.5 C 463.5,270.5 463.5,280.5 463.5,290.5C 464.833,290.5 466.167,290.5 467.5,290.5C 467.5,284.5 467.5,278.5 467.5,272.5C 469.179,272.285 470.179,272.952 470.5,274.5C 468.55,279.735 467.883,285.402 468.5,291.5C 466.5,291.5 464.5,291.5 462.5,291.5C 462.172,280.986 462.506,270.653 463.5,260.5 Z"/></g>
<g><path style="opacity:1" fill="#fabe5b" d="M 378.5,273.5 C 379.385,275.27 378.552,276.27 376,276.5C 374.594,275.586 373.094,274.92 371.5,274.5C 369.797,270.98 370.463,267.98 373.5,265.5C 374.167,267.833 374.833,270.167 375.5,272.5C 376.417,273.127 377.417,273.461 378.5,273.5 Z"/></g>
<g><path style="opacity:0.337" fill="#697162" d="M 383.5,265.5 C 383.5,265.833 383.5,266.167 383.5,266.5C 380.654,266.03 378.321,266.863 376.5,269C 377.167,269.667 377.833,270.333 378.5,271C 381.914,271.297 385.247,271.964 388.5,273C 389.942,273.377 390.942,274.21 391.5,275.5C 387.364,273.817 383.031,273.15 378.5,273.5C 373.479,267.099 375.146,264.433 383.5,265.5 Z"/></g>
<g><path style="opacity:1" fill="#fabe5e" d="M 446.5,265.5 C 446.5,273.833 446.5,282.167 446.5,290.5C 445.167,290.5 443.833,290.5 442.5,290.5C 442.5,280.833 442.5,271.167 442.5,261.5C 443.5,261.5 444.5,261.5 445.5,261.5C 445.232,263.099 445.566,264.432 446.5,265.5 Z"/></g>
<g><path style="opacity:0.306" fill="#69715e" d="M 247.5,263.5 C 246.833,263.167 246.167,262.833 245.5,262.5C 244.01,260.72 242.01,260.054 239.5,260.5C 238.506,270.653 238.172,280.986 238.5,291.5C 240.5,291.5 242.5,291.5 244.5,291.5C 244.5,285.5 244.5,279.5 244.5,273.5C 248.286,275.714 250.62,279.048 251.5,283.5C 249.53,281.353 247.697,279.02 246,276.5C 245.501,281.823 245.334,287.156 245.5,292.5C 242.833,292.5 240.167,292.5 237.5,292.5C 237.569,281.788 237.402,271.122 237,260.5C 239.153,258.556 241.653,258.056 244.5,259C 246.376,259.918 247.376,261.418 247.5,263.5 Z"/></g>
<g><path style="opacity:0.212" fill="#596865" d="M 250.5,268.5 C 251.906,268.973 252.573,269.973 252.5,271.5C 251.094,271.027 250.427,270.027 250.5,268.5 Z"/></g>
<g><path style="opacity:1" fill="#e4b967" d="M 343.5,261.5 C 345.638,260.192 347.638,260.525 349.5,262.5C 348.972,266.929 350.305,270.596 353.5,273.5C 353.054,276.01 353.72,278.01 355.5,279.5C 355.5,280.833 355.5,282.167 355.5,283.5C 354.85,283.196 354.183,282.863 353.5,282.5C 352.956,279.286 351.956,276.286 350.5,273.5C 349.472,275.44 349.472,277.44 350.5,279.5C 350.253,280.713 349.586,281.38 348.5,281.5C 348.249,277.751 347.583,274.085 346.5,270.5C 347.391,269.739 348.058,268.739 348.5,267.5C 347.246,265.666 346.579,263.666 346.5,261.5C 345.5,261.5 344.5,261.5 343.5,261.5 Z"/></g>
<g><path style="opacity:0.137" fill="#496264" d="M 447.5,259.5 C 448.495,270.321 448.828,281.321 448.5,292.5C 446.801,292.62 445.135,292.954 443.5,293.5C 441.962,293.547 440.962,292.88 440.5,291.5C 442.5,291.5 444.5,291.5 446.5,291.5C 447.494,281.013 447.828,270.346 447.5,259.5 Z"/></g>
<g><path style="opacity:0.805" fill="#8f8a6a" d="M 124.5,259.5 C 124.833,260.167 125.167,260.833 125.5,261.5C 119.894,260.593 114.227,260.26 108.5,260.5C 108.5,269.5 108.5,278.5 108.5,287.5C 108.167,287.5 107.833,287.5 107.5,287.5C 106.342,278.343 106.176,269.009 107,259.5C 112.932,258.175 118.766,258.175 124.5,259.5 Z"/></g>
<g><path style="opacity:0.278" fill="#5c6d66" d="M 145.5,259.5 C 147.607,258.532 149.941,258.198 152.5,258.5C 152.5,269.833 152.5,281.167 152.5,292.5C 149.427,294.138 146.594,293.805 144,291.5C 144.588,282.329 144.422,273.162 143.5,264C 143.307,261.992 143.974,260.492 145.5,259.5 Z"/></g>
<g><path style="opacity:1" fill="#f9bd5d" d="M 297.5,260.5 C 299.167,260.5 300.833,260.5 302.5,260.5C 302.5,265.833 302.5,271.167 302.5,276.5C 305.367,276.631 307.033,275.297 307.5,272.5C 308.15,272.196 308.817,271.863 309.5,271.5C 311.759,276.981 309.926,279.981 304,280.5C 303.055,280.095 302.388,279.428 302,278.5C 301.501,282.486 301.334,286.486 301.5,290.5C 300.5,290.5 299.5,290.5 298.5,290.5C 298.01,280.506 297.677,270.506 297.5,260.5 Z"/></g>
<g><path style="opacity:1" fill="#d0b174" d="M 441.5,260.5 C 443.167,260.5 444.833,260.5 446.5,260.5C 446.5,262.167 446.5,263.833 446.5,265.5C 445.566,264.432 445.232,263.099 445.5,261.5C 444.5,261.5 443.5,261.5 442.5,261.5C 442.5,271.167 442.5,280.833 442.5,290.5C 443.833,290.5 445.167,290.5 446.5,290.5C 446.5,290.833 446.5,291.167 446.5,291.5C 444.5,291.5 442.5,291.5 440.5,291.5C 440.172,280.986 440.506,270.653 441.5,260.5 Z"/></g>
<g><path style="opacity:0.688" fill="#b19f68" d="M 441.5,260.5 C 443.265,259.539 445.265,259.205 447.5,259.5C 447.828,270.346 447.494,281.013 446.5,291.5C 446.5,291.167 446.5,290.833 446.5,290.5C 446.5,282.167 446.5,273.833 446.5,265.5C 446.5,263.833 446.5,262.167 446.5,260.5C 444.833,260.5 443.167,260.5 441.5,260.5 Z"/></g>
<g><path style="opacity:0.865" fill="#cfaf70" d="M 481.5,259.5 C 483.5,259.5 485.5,259.5 487.5,259.5C 487.5,261.5 487.5,263.5 487.5,265.5C 487.666,273.84 487.5,282.173 487,290.5C 485.057,291.807 483.223,291.807 481.5,290.5C 483.451,290.773 484.951,290.107 486,288.5C 486.5,279.173 486.666,269.839 486.5,260.5C 485.167,260.5 483.833,260.5 482.5,260.5C 482.666,266.842 482.5,273.175 482,279.5C 480.539,280.883 479.706,280.549 479.5,278.5C 481.456,272.588 482.123,266.255 481.5,259.5 Z"/></g>
<g><path style="opacity:0.659" fill="#aba17c" d="M 79.5,272.5 C 82.5,272.5 85.5,272.5 88.5,272.5C 88.7845,274.415 88.4511,276.081 87.5,277.5C 87.5,276.167 87.5,274.833 87.5,273.5C 84.6146,273.806 81.9479,273.473 79.5,272.5 Z"/></g>
<g><path style="opacity:0.948" fill="#d7b370" d="M 145.5,259.5 C 147.5,259.5 149.5,259.5 151.5,259.5C 151.5,270.167 151.5,280.833 151.5,291.5C 149.5,291.5 147.5,291.5 145.5,291.5C 145.5,280.833 145.5,270.167 145.5,259.5 Z"/></g>
<g><path style="opacity:1" fill="#fbbd5d" d="M 146.5,260.5 C 147.833,260.5 149.167,260.5 150.5,260.5C 150.5,270.5 150.5,280.5 150.5,290.5C 149.167,290.5 147.833,290.5 146.5,290.5C 146.5,280.5 146.5,270.5 146.5,260.5 Z"/></g>
<g><path style="opacity:0.125" fill="#506766" d="M 208.5,259.5 C 215.386,257.409 220.886,259.409 225,265.5C 226.527,271.415 226.861,277.415 226,283.5C 224.974,286.239 223.474,288.572 221.5,290.5C 221.557,289.391 221.89,288.391 222.5,287.5C 223.11,286.609 223.443,285.609 223.5,284.5C 224.222,284.082 224.722,283.416 225,282.5C 225.814,277.98 225.647,273.646 224.5,269.5C 224.245,267.033 223.245,265.033 221.5,263.5C 217.903,260.192 213.569,258.859 208.5,259.5 Z"/></g>
<g><path style="opacity:0.455" fill="#707964" d="M 339.5,266.5 C 339.587,271.042 338.253,275.042 335.5,278.5C 336.261,274.216 337.595,270.216 339.5,266.5 Z"/></g>
<g><path style="opacity:0.035" fill="#495c56" d="M 208.5,267.5 C 207.627,271.768 207.294,276.102 207.5,280.5C 206.355,276.689 206.188,272.689 207,268.5C 207.383,267.944 207.883,267.611 208.5,267.5 Z"/></g>
<g><path style="opacity:0.18" fill="#58655a" d="M 252.5,271.5 C 253.906,271.973 254.573,272.973 254.5,274.5C 253.094,274.027 252.427,273.027 252.5,271.5 Z"/></g>
<g><path style="opacity:0.251" fill="#54665c" d="M 257.5,259.5 C 258.12,265.926 257.453,271.926 255.5,277.5C 254.89,276.609 254.557,275.609 254.5,274.5C 255.117,274.611 255.617,274.944 256,275.5C 256.709,271.132 256.542,266.799 255.5,262.5C 255.453,260.962 256.12,259.962 257.5,259.5 Z"/></g>
<g><path style="opacity:0.4" fill="#7d7d65" d="M 319.5,263.5 C 319.5,263.833 319.5,264.167 319.5,264.5C 316.912,267.606 314.912,271.106 313.5,275C 315.646,278.793 317.646,282.626 319.5,286.5C 319.5,287.167 319.5,287.833 319.5,288.5C 316.355,284.222 313.688,279.555 311.5,274.5C 313.067,271.034 314.9,267.701 317,264.5C 317.671,263.748 318.504,263.414 319.5,263.5 Z"/></g>
<g><path style="opacity:0.031" fill="#4c6260" d="M 411.5,270.5 C 415.779,271.375 420.113,272.209 424.5,273C 426.141,274.129 427.141,275.629 427.5,277.5C 426.5,276.833 425.5,276.167 424.5,275.5C 424.389,274.883 424.056,274.383 423.5,274C 419.026,273.609 415.026,272.442 411.5,270.5 Z"/></g>
<g><path style="opacity:0.584" fill="#5c6f62" d="M 164.5,266.5 C 164.216,268.415 164.549,270.081 165.5,271.5C 166.228,273.735 167.561,275.568 169.5,277C 173.775,278.158 178.109,278.992 182.5,279.5C 182.66,281.199 182.494,282.866 182,284.5C 181.329,285.252 180.496,285.586 179.5,285.5C 181.248,284.211 181.581,282.711 180.5,281C 177.289,279.847 173.956,279.18 170.5,279C 164.756,276.355 162.756,272.189 164.5,266.5 Z"/></g>
<g><path style="opacity:0.031" fill="#5e6f64" d="M 181.5,267.5 C 181.5,267.833 181.5,268.167 181.5,268.5C 178.317,265.705 175.317,265.872 172.5,269C 172.667,269.5 172.833,270 173,270.5C 177.629,271.061 182.129,272.228 186.5,274C 192.03,279.966 191.696,285.633 185.5,291C 180.74,292.668 176.074,292.835 171.5,291.5C 175.042,291.813 178.375,291.479 181.5,290.5C 188.433,288.101 190.266,283.434 187,276.5C 182.592,273.748 177.759,272.248 172.5,272C 170.254,267.214 171.754,265.047 177,265.5C 178.986,265.569 180.486,266.235 181.5,267.5 Z"/></g>
<g><path style="opacity:0.115" fill="#4a605c" d="M 205.5,260.5 C 199.858,266.74 198.025,274.073 200,282.5C 201.269,283.905 201.769,285.571 201.5,287.5C 200.034,286.653 199.2,285.32 199,283.5C 197.902,276.615 198.569,269.949 201,263.5C 202.129,261.859 203.629,260.859 205.5,260.5 Z"/></g>
<g><path style="opacity:1" fill="#fcbd59" d="M 208.5,265.5 C 205.908,267.036 204.908,269.369 205.5,272.5C 204.834,276.353 204.167,280.353 203.5,284.5C 201.039,278.286 200.873,271.953 203,265.5C 205.09,262.983 206.923,262.983 208.5,265.5 Z"/></g>
<g><path style="opacity:0.569" fill="#898968" d="M 208.5,265.5 C 209.167,265.5 209.833,265.5 210.5,265.5C 212.415,265.216 214.081,265.549 215.5,266.5C 213.05,266.298 210.717,266.631 208.5,267.5C 207.883,267.611 207.383,267.944 207,268.5C 206.188,272.689 206.355,276.689 207.5,280.5C 207.75,282.674 208.75,284.341 210.5,285.5C 209.178,285.67 208.011,285.337 207,284.5C 205.734,280.605 205.234,276.605 205.5,272.5C 204.908,269.369 205.908,267.036 208.5,265.5 Z"/></g>
<g><path style="opacity:0.922" fill="#ceaf6d" d="M 257.5,259.5 C 259.5,259.5 261.5,259.5 263.5,259.5C 263.5,270.167 263.5,280.833 263.5,291.5C 261.265,291.795 259.265,291.461 257.5,290.5C 258.833,290.5 260.167,290.5 261.5,290.5C 262.424,280.539 262.758,270.539 262.5,260.5C 261.167,260.5 259.833,260.5 258.5,260.5C 258.823,267.022 258.49,273.355 257.5,279.5C 256.167,279.5 255.5,278.833 255.5,277.5C 257.453,271.926 258.12,265.926 257.5,259.5 Z"/></g>
<g><path style="opacity:1" fill="#e6bb6a" d="M 378.5,273.5 C 383.031,273.15 387.364,273.817 391.5,275.5C 392.15,277.435 392.483,279.435 392.5,281.5C 391.069,280.22 390.402,278.553 390.5,276.5C 388.226,276.285 386.059,275.618 384,274.5C 383.167,274.833 382.333,275.167 381.5,275.5C 383.826,276.145 385.493,277.478 386.5,279.5C 382.929,278.358 379.262,277.691 375.5,277.5C 373.596,277.262 372.262,276.262 371.5,274.5C 373.094,274.92 374.594,275.586 376,276.5C 378.552,276.27 379.385,275.27 378.5,273.5 Z"/></g>
<g><path style="opacity:1" fill="#dbb56b" d="M 410.5,261.5 C 406.922,264.633 405.589,268.633 406.5,273.5C 407.5,273.5 408.5,273.5 409.5,273.5C 408.523,264.992 412.19,262.158 420.5,265C 421.252,265.671 421.586,266.504 421.5,267.5C 418.823,265.568 415.823,265.068 412.5,266C 410.534,267.347 410.201,268.847 411.5,270.5C 415.026,272.442 419.026,273.609 423.5,274C 424.056,274.383 424.389,274.883 424.5,275.5C 420.204,274.537 415.871,274.371 411.5,275C 411.167,275.333 410.833,275.667 410.5,276C 413.678,276.66 416.678,277.493 419.5,278.5C 414.449,278.958 409.783,277.958 405.5,275.5C 404.508,272.221 404.341,268.888 405,265.5C 406.451,263.536 408.284,262.203 410.5,261.5 Z"/></g>
<g><path style="opacity:0.686" fill="#b09d6c" d="M 224.5,269.5 C 225.647,273.646 225.814,277.98 225,282.5C 224.722,283.416 224.222,284.082 223.5,284.5C 224.329,279.547 224.663,274.547 224.5,269.5 Z"/></g>
<g><path style="opacity:0.955" fill="#cfb26c" d="M 130.5,266.5 C 130.833,266.5 131.167,266.5 131.5,266.5C 131.72,273.543 131.386,280.543 130.5,287.5C 130.167,287.5 129.833,287.5 129.5,287.5C 130.341,280.535 130.674,273.535 130.5,266.5 Z"/></g>
<g><path style="opacity:0.4" fill="#5c7063" d="M 131.5,266.5 C 132.271,269.846 132.938,273.346 133.5,277C 133.093,280.805 132.093,284.305 130.5,287.5C 131.386,280.543 131.72,273.543 131.5,266.5 Z"/></g>
<g><path style="opacity:0.2" fill="#416164" d="M 369.5,273.5 C 370.167,273.833 370.833,274.167 371.5,274.5C 372.262,276.262 373.596,277.262 375.5,277.5C 376.833,278.167 378.167,278.833 379.5,279.5C 377.833,279.5 376.167,279.5 374.5,279.5C 372.117,278.115 370.45,276.115 369.5,273.5 Z"/></g>
<g><path style="opacity:1" fill="#e8b866" d="M 245.5,262.5 C 246.167,262.833 246.833,263.167 247.5,263.5C 247.75,265.674 248.75,267.341 250.5,268.5C 250.427,270.027 251.094,271.027 252.5,271.5C 252.427,273.027 253.094,274.027 254.5,274.5C 254.557,275.609 254.89,276.609 255.5,277.5C 255.5,278.833 256.167,279.5 257.5,279.5C 257.631,280.376 257.298,281.043 256.5,281.5C 255.5,280.833 254.5,280.167 253.5,279.5C 253.167,280 252.833,280.5 252.5,281C 254.55,283.598 256.216,286.431 257.5,289.5C 256.833,289.5 256.167,289.5 255.5,289.5C 255.155,286.802 253.822,284.802 251.5,283.5C 250.62,279.048 248.286,275.714 244.5,273.5C 243.833,279.167 243.167,284.833 242.5,290.5C 242.5,284.167 242.5,277.833 242.5,271.5C 244.604,271.799 246.604,271.466 248.5,270.5C 246.756,268.124 245.756,265.457 245.5,262.5 Z"/></g>
<g><path style="opacity:1" fill="#c9ae70" d="M 297.5,260.5 C 297.677,270.506 298.01,280.506 298.5,290.5C 299.5,290.5 300.5,290.5 301.5,290.5C 302.166,287.972 302.832,285.306 303.5,282.5C 304.183,282.137 304.85,281.804 305.5,281.5C 305.5,282.167 305.5,282.833 305.5,283.5C 303.631,285.635 302.964,288.302 303.5,291.5C 301.167,291.5 298.833,291.5 296.5,291.5C 296.172,280.986 296.506,270.653 297.5,260.5 Z"/></g>
<g><path style="opacity:0.608" fill="#697a6a" d="M 353.5,273.5 C 354.738,275.214 355.405,277.214 355.5,279.5C 353.72,278.01 353.054,276.01 353.5,273.5 Z"/></g>
<g><path style="opacity:0.027" fill="#4d615a" d="M 79.5,272.5 C 79.5,272.167 79.5,271.833 79.5,271.5C 82.8499,271.335 86.1832,271.502 89.5,272C 90.4881,274.42 90.1548,276.753 88.5,279C 85.5184,279.498 82.5184,279.665 79.5,279.5C 79.5,281.167 79.5,282.833 79.5,284.5C 78.1888,282.44 78.1888,280.274 79.5,278C 82.146,277.503 84.8127,277.336 87.5,277.5C 88.4511,276.081 88.7845,274.415 88.5,272.5C 85.5,272.5 82.5,272.5 79.5,272.5 Z"/></g>
<g><path style="opacity:0.154" fill="#4e6460" d="M 303.5,259.5 C 301.265,259.205 299.265,259.539 297.5,260.5C 296.506,270.653 296.172,280.986 296.5,291.5C 298.833,291.5 301.167,291.5 303.5,291.5C 301.49,293.58 299.157,293.913 296.5,292.5C 295.334,281.515 295.168,270.515 296,259.5C 298.605,258.186 301.105,258.186 303.5,259.5 Z"/></g>
<g><path style="opacity:0.247" fill="#4f6661" d="M 179.5,285.5 C 176.099,287.096 173.099,286.429 170.5,283.5C 169.082,281.692 167.082,281.025 164.5,281.5C 164.517,283.565 164.85,285.565 165.5,287.5C 164.883,287.389 164.383,287.056 164,286.5C 163.505,284.527 163.338,282.527 163.5,280.5C 165.467,280.739 167.301,280.406 169,279.5C 170.939,281.194 172.772,283.027 174.5,285C 176.134,285.494 177.801,285.66 179.5,285.5 Z"/></g>
<g><path style="opacity:0.306" fill="#707461" d="M 346.5,270.5 C 347.583,274.085 348.249,277.751 348.5,281.5C 346.167,281.5 343.833,281.5 341.5,281.5C 341.157,279.517 341.824,278.183 343.5,277.5C 343.5,275.833 343.5,274.167 343.5,272.5C 343.973,271.094 344.973,270.427 346.5,270.5 Z M 343.5,277.5 C 344.158,276.602 344.824,275.602 345.5,274.5C 346.768,276.304 347.435,278.304 347.5,280.5C 346.167,280.5 344.833,280.5 343.5,280.5C 343.5,279.5 343.5,278.5 343.5,277.5 Z"/></g>
<g><path style="opacity:0.196" fill="#4d6a64" d="M 374.5,279.5 C 375.711,281.95 377.378,283.95 379.5,285.5C 376.886,285.723 375.219,284.556 374.5,282C 372.866,281.506 371.199,281.34 369.5,281.5C 369.34,283.199 369.506,284.866 370,286.5C 371.376,287.705 372.542,289.038 373.5,290.5C 368.768,288.867 367.101,285.7 368.5,281C 370.518,280.495 372.518,279.995 374.5,279.5 Z"/></g>
<g><path style="opacity:0.212" fill="#556962" d="M 405.5,275.5 C 409.783,277.958 414.449,278.958 419.5,278.5C 419.833,279.167 420.167,279.833 420.5,280.5C 417.17,279.334 413.837,279.334 410.5,280.5C 412.48,285.155 415.814,286.489 420.5,284.5C 417.813,286.974 414.813,287.141 411.5,285C 410.244,282.372 408.244,281.372 405.5,282C 404.483,283.049 404.316,284.216 405,285.5C 405.997,287.323 407.164,288.99 408.5,290.5C 403.768,288.867 402.101,285.7 403.5,281C 405.5,280.333 407.5,279.667 409.5,279C 407.676,278.34 406.343,277.173 405.5,275.5 Z"/></g>
<g><path style="opacity:0.416" fill="#58685b" d="M 427.5,277.5 C 428.898,278.777 429.564,280.443 429.5,282.5C 429.533,285.102 428.533,287.102 426.5,288.5C 426.5,288.167 426.5,287.833 426.5,287.5C 427.414,284.272 427.747,280.939 427.5,277.5 Z"/></g>
<g><path style="opacity:1" fill="#fbbd5c" d="M 239.5,260.5 C 242.01,260.054 244.01,260.72 245.5,262.5C 245.756,265.457 246.756,268.124 248.5,270.5C 246.604,271.466 244.604,271.799 242.5,271.5C 242.5,277.833 242.5,284.167 242.5,290.5C 241.5,290.5 240.5,290.5 239.5,290.5C 239.5,280.5 239.5,270.5 239.5,260.5 Z"/></g>
<g><path style="opacity:0.682" fill="#888864" d="M 391.5,275.5 C 392.906,275.973 393.573,276.973 393.5,278.5C 393.802,281.059 393.468,283.393 392.5,285.5C 392.5,284.167 392.5,282.833 392.5,281.5C 392.483,279.435 392.15,277.435 391.5,275.5 Z"/></g>
<g><path style="opacity:1" fill="#bdac73" d="M 170.5,283.5 C 169.292,282.766 167.959,282.433 166.5,282.5C 166.366,284.292 166.699,285.958 167.5,287.5C 166.833,287.5 166.167,287.5 165.5,287.5C 164.85,285.565 164.517,283.565 164.5,281.5C 167.082,281.025 169.082,281.692 170.5,283.5 Z"/></g>
<g><path style="opacity:1" fill="#f7be60" d="M 73.5,260.5 C 79.8333,260.5 86.1667,260.5 92.5,260.5C 92.5,261.833 92.5,263.167 92.5,264.5C 87.8333,264.5 83.1667,264.5 78.5,264.5C 78.1936,267.385 78.5269,270.052 79.5,272.5C 81.9479,273.473 84.6146,273.806 87.5,273.5C 87.5,274.833 87.5,276.167 87.5,277.5C 84.8127,277.336 82.146,277.503 79.5,278C 78.1888,280.274 78.1888,282.44 79.5,284.5C 79.5,285.167 79.5,285.833 79.5,286.5C 83.3123,287.324 87.3123,287.824 91.5,288C 91.9574,288.414 92.2907,288.914 92.5,289.5C 87.1977,290.663 81.8643,290.829 76.5,290C 76,289.5 75.5,289 75,288.5C 73.5545,279.274 73.0545,269.94 73.5,260.5 Z"/></g>
<g><path style="opacity:0.125" fill="#5b6550" d="M 79.5,284.5 C 84.2695,285.117 88.9362,285.784 93.5,286.5C 88.8333,286.5 84.1667,286.5 79.5,286.5C 79.5,285.833 79.5,285.167 79.5,284.5 Z"/></g>
<g><path style="opacity:0.78" fill="#837d56" d="M 216.5,284.5 C 216.5,285.833 215.833,286.5 214.5,286.5C 212.901,286.768 211.568,286.434 210.5,285.5C 212.565,285.483 214.565,285.15 216.5,284.5 Z"/></g>
<g><path style="opacity:0.382" fill="#5f686c" d="M 257.5,259.5 C 258.449,258.848 259.615,258.514 261,258.5C 262.658,258.675 263.991,259.342 265,260.5C 265.667,270.167 265.667,279.833 265,289.5C 264.722,290.416 264.222,291.082 263.5,291.5C 263.5,280.833 263.5,270.167 263.5,259.5C 261.5,259.5 259.5,259.5 257.5,259.5 Z"/></g>
<g><path style="opacity:1" fill="#f9bd5c" d="M 355.5,283.5 C 357.046,285.882 357.713,288.549 357.5,291.5C 355.585,291.784 353.919,291.451 352.5,290.5C 352.167,288.5 351.833,286.5 351.5,284.5C 346.833,284.5 342.167,284.5 337.5,284.5C 337.5,286.5 337.5,288.5 337.5,290.5C 336.127,290.657 334.793,290.49 333.5,290C 335.743,286.165 337.243,281.998 338,277.5C 338.308,276.692 338.808,276.025 339.5,275.5C 340.169,277.631 340.835,279.631 341.5,281.5C 343.833,281.5 346.167,281.5 348.5,281.5C 349.586,281.38 350.253,280.713 350.5,279.5C 349.472,277.44 349.472,275.44 350.5,273.5C 351.956,276.286 352.956,279.286 353.5,282.5C 354.183,282.863 354.85,283.196 355.5,283.5 Z"/></g>
<g><path style="opacity:1" fill="#dfb76d" d="M 352.5,290.5 C 351.833,289.833 351.167,289.167 350.5,288.5C 349.129,287.213 347.295,286.547 345,286.5C 343.167,286.667 341.333,286.833 339.5,287C 338.915,288.302 338.249,289.469 337.5,290.5C 337.5,288.5 337.5,286.5 337.5,284.5C 342.167,284.5 346.833,284.5 351.5,284.5C 351.833,286.5 352.167,288.5 352.5,290.5 Z"/></g>
<g><path style="opacity:0.49" fill="#84846b" d="M 355.5,279.5 C 356.871,281.936 357.871,284.603 358.5,287.5C 358.768,289.099 358.434,290.432 357.5,291.5C 357.713,288.549 357.046,285.882 355.5,283.5C 355.5,282.167 355.5,280.833 355.5,279.5 Z"/></g>
<g><path style="opacity:1" fill="#dfb66c" d="M 379.5,285.5 C 380.568,286.434 381.901,286.768 383.5,286.5C 381.031,287.317 378.365,287.817 375.5,288C 376.381,288.708 377.047,289.542 377.5,290.5C 376.167,290.5 374.833,290.5 373.5,290.5C 372.542,289.038 371.376,287.705 370,286.5C 369.506,284.866 369.34,283.199 369.5,281.5C 371.199,281.34 372.866,281.506 374.5,282C 375.219,284.556 376.886,285.723 379.5,285.5 Z"/></g>
<g><path style="opacity:0.702" fill="#83805f" d="M 375.5,277.5 C 379.262,277.691 382.929,278.358 386.5,279.5C 387.793,281.364 387.793,283.364 386.5,285.5C 385.583,286.127 384.583,286.461 383.5,286.5C 381.901,286.768 380.568,286.434 379.5,285.5C 383.971,286.157 385.638,284.49 384.5,280.5C 382.929,279.691 381.262,279.357 379.5,279.5C 378.167,278.833 376.833,278.167 375.5,277.5 Z"/></g>
<g><path style="opacity:0.075" fill="#405c5c" d="M 447.5,259.5 C 445.265,259.205 443.265,259.539 441.5,260.5C 440.506,270.653 440.172,280.986 440.5,291.5C 439.341,281.008 439.175,270.341 440,259.5C 442.605,258.186 445.105,258.186 447.5,259.5 Z"/></g>
<g><path style="opacity:1" fill="#f1bb62" d="M 392.5,281.5 C 392.5,282.833 392.5,284.167 392.5,285.5C 390.863,287.475 389.196,289.475 387.5,291.5C 383.958,291.813 380.625,291.479 377.5,290.5C 377.047,289.542 376.381,288.708 375.5,288C 378.365,287.817 381.031,287.317 383.5,286.5C 384.583,286.461 385.583,286.127 386.5,285.5C 387.793,283.364 387.793,281.364 386.5,279.5C 385.493,277.478 383.826,276.145 381.5,275.5C 382.333,275.167 383.167,274.833 384,274.5C 386.059,275.618 388.226,276.285 390.5,276.5C 390.402,278.553 391.069,280.22 392.5,281.5 Z"/></g>
<g><path style="opacity:0.373" fill="#5d6e62" d="M 251.5,283.5 C 253.822,284.802 255.155,286.802 255.5,289.5C 253.674,287.853 252.34,285.853 251.5,283.5 Z"/></g>
<g><path style="opacity:1" fill="#fbbd5b" d="M 257.5,290.5 C 257.5,290.167 257.5,289.833 257.5,289.5C 256.216,286.431 254.55,283.598 252.5,281C 252.833,280.5 253.167,280 253.5,279.5C 254.5,280.167 255.5,280.833 256.5,281.5C 257.298,281.043 257.631,280.376 257.5,279.5C 258.49,273.355 258.823,267.022 258.5,260.5C 259.833,260.5 261.167,260.5 262.5,260.5C 262.758,270.539 262.424,280.539 261.5,290.5C 260.167,290.5 258.833,290.5 257.5,290.5 Z"/></g>
<g><path style="opacity:0.043" fill="#5b6860" d="M 477.5,286.5 C 478.906,286.973 479.573,287.973 479.5,289.5C 478.094,289.027 477.427,288.027 477.5,286.5 Z"/></g>
<g><path style="opacity:0.467" fill="#767d6a" d="M 107.5,287.5 C 107.833,287.5 108.167,287.5 108.5,287.5C 109.167,287.5 109.5,287.833 109.5,288.5C 110.167,289.5 110.833,290.5 111.5,291.5C 109.167,291.167 107.833,289.833 107.5,287.5 Z"/></g>
<g><path style="opacity:1" fill="#f5bd61" d="M 125.5,261.5 C 128.167,262.167 129.833,263.833 130.5,266.5C 130.674,273.535 130.341,280.535 129.5,287.5C 128.222,287.782 127.222,288.449 126.5,289.5C 120.614,291.137 114.948,290.804 109.5,288.5C 109.5,287.833 109.167,287.5 108.5,287.5C 108.5,278.5 108.5,269.5 108.5,260.5C 114.227,260.26 119.894,260.593 125.5,261.5 Z M 121.5,266.5 C 125.448,272.753 125.448,279.086 121.5,285.5C 116.094,286.265 114.094,283.931 115.5,278.5C 115.5,274.5 115.5,270.5 115.5,266.5C 117.5,266.5 119.5,266.5 121.5,266.5 Z"/></g>
<g><path style="opacity:0.288" fill="#677365" d="M 121.5,265.5 C 123.017,265.511 124.184,266.177 125,267.5C 125.667,272.5 125.667,277.5 125,282.5C 124.578,284.426 123.411,285.426 121.5,285.5C 125.448,279.086 125.448,272.753 121.5,266.5C 121.5,266.167 121.5,265.833 121.5,265.5 Z"/></g>
<g><path style="opacity:0.02" fill="#365659" d="M 121.5,265.5 C 121.5,265.833 121.5,266.167 121.5,266.5C 119.5,266.5 117.5,266.5 115.5,266.5C 115.5,270.5 115.5,274.5 115.5,278.5C 114.515,274.366 114.182,270.032 114.5,265.5C 116.833,265.5 119.167,265.5 121.5,265.5 Z"/></g>
<g><path style="opacity:0.455" fill="#76785c" d="M 121.5,265.5 C 119.167,265.5 116.833,265.5 114.5,265.5C 114.182,270.032 114.515,274.366 115.5,278.5C 114.094,283.931 116.094,286.265 121.5,285.5C 118.857,286.979 116.357,286.646 114,284.5C 113.5,277.842 113.334,271.175 113.5,264.5C 116.385,264.194 119.052,264.527 121.5,265.5 Z"/></g>
<g><path style="opacity:1" fill="#dcb76f" d="M 342.5,262.5 C 342.283,265.435 341.617,268.269 340.5,271C 340.667,271.833 340.833,272.667 341,273.5C 341.671,272.748 342.504,272.414 343.5,272.5C 343.5,274.167 343.5,275.833 343.5,277.5C 341.824,278.183 341.157,279.517 341.5,281.5C 340.835,279.631 340.169,277.631 339.5,275.5C 338.808,276.025 338.308,276.692 338,277.5C 337.243,281.998 335.743,286.165 333.5,290C 334.793,290.49 336.127,290.657 337.5,290.5C 336.081,291.451 334.415,291.784 332.5,291.5C 333.699,287.231 334.699,282.897 335.5,278.5C 338.253,275.042 339.587,271.042 339.5,266.5C 340.5,265.167 341.5,263.833 342.5,262.5 Z"/></g>
<g><path style="opacity:1" fill="#ebb864" d="M 424.5,275.5 C 425.5,276.167 426.5,276.833 427.5,277.5C 427.747,280.939 427.414,284.272 426.5,287.5C 424.326,287.75 422.659,288.75 421.5,290.5C 417.223,291.597 412.89,291.597 408.5,290.5C 407.164,288.99 405.997,287.323 405,285.5C 404.316,284.216 404.483,283.049 405.5,282C 408.244,281.372 410.244,282.372 411.5,285C 414.813,287.141 417.813,286.974 420.5,284.5C 420.5,283.167 420.5,281.833 420.5,280.5C 420.167,279.833 419.833,279.167 419.5,278.5C 416.678,277.493 413.678,276.66 410.5,276C 410.833,275.667 411.167,275.333 411.5,275C 415.871,274.371 420.204,274.537 424.5,275.5 Z"/></g>
<g><path style="opacity:0.318" fill="#5c706a" d="M 165.5,287.5 C 166.167,287.5 166.833,287.5 167.5,287.5C 168.527,289.194 169.861,290.527 171.5,291.5C 168.708,291.378 166.708,290.044 165.5,287.5 Z"/></g>
<g><path style="opacity:1" fill="#f6bc60" d="M 221.5,263.5 C 223.245,265.033 224.245,267.033 224.5,269.5C 224.663,274.547 224.329,279.547 223.5,284.5C 223.443,285.609 223.11,286.609 222.5,287.5C 220.405,288.412 218.405,289.579 216.5,291C 213.833,291.667 211.167,291.667 208.5,291C 207.058,290.623 206.058,289.79 205.5,288.5C 205.62,287.414 206.287,286.747 207.5,286.5C 208.833,287.167 210.167,287.833 211.5,288.5C 213.038,288.547 214.038,287.88 214.5,286.5C 215.833,286.5 216.5,285.833 216.5,284.5C 218.25,283.341 219.25,281.674 219.5,279.5C 221.114,274.167 220.447,269 217.5,264C 215.423,263.808 213.423,263.308 211.5,262.5C 212.5,262.167 213.5,261.833 214.5,261.5C 216.932,261.886 219.266,262.553 221.5,263.5 Z"/></g>
<g><path style="opacity:0.729" fill="#aea177" d="M 426.5,287.5 C 426.5,287.833 426.5,288.167 426.5,288.5C 426.5,289.167 426.167,289.5 425.5,289.5C 424.167,289.833 422.833,290.167 421.5,290.5C 422.659,288.75 424.326,287.75 426.5,287.5 Z"/></g>
<g><path style="opacity:1" fill="#d4b675" d="M 73.5,260.5 C 73.0545,269.94 73.5545,279.274 75,288.5C 75.5,289 76,289.5 76.5,290C 81.8643,290.829 87.1977,290.663 92.5,289.5C 92.2907,288.914 91.9574,288.414 91.5,288C 87.3123,287.824 83.3123,287.324 79.5,286.5C 84.1667,286.5 88.8333,286.5 93.5,286.5C 93.5,288.167 93.5,289.833 93.5,291.5C 87.5,291.5 81.5,291.5 75.5,291.5C 74.4955,290.317 73.6622,288.984 73,287.5C 72.176,278.324 72.3427,269.324 73.5,260.5 Z"/></g>
<g><path style="opacity:1" fill="#d4b56e" d="M 109.5,288.5 C 114.948,290.804 120.614,291.137 126.5,289.5C 125.737,290.268 124.737,290.768 123.5,291C 119.514,291.499 115.514,291.666 111.5,291.5C 110.833,290.5 110.167,289.5 109.5,288.5 Z"/></g>
<g><path style="opacity:1" fill="#ceb072" d="M 167.5,287.5 C 171.783,289.958 176.449,290.958 181.5,290.5C 178.375,291.479 175.042,291.813 171.5,291.5C 169.861,290.527 168.527,289.194 167.5,287.5 Z"/></g>
<g><path style="opacity:0.055" fill="#406062" d="M 305.5,283.5 C 304.922,286.28 304.255,288.947 303.5,291.5C 302.964,288.302 303.631,285.635 305.5,283.5 Z"/></g>
<g><path style="opacity:0.059" fill="#526562" d="M 393.5,278.5 C 396.131,284.891 394.131,289.225 387.5,291.5C 389.196,289.475 390.863,287.475 392.5,285.5C 393.468,283.393 393.802,281.059 393.5,278.5 Z"/></g>
<g><path style="opacity:0.298" fill="#5b7065" d="M 93.5,286.5 C 94.4614,288.265 94.7947,290.265 94.5,292.5C 87.9779,292.823 81.6446,292.49 75.5,291.5C 81.5,291.5 87.5,291.5 93.5,291.5C 93.5,289.833 93.5,288.167 93.5,286.5 Z"/></g>
<g><path style="opacity:0.333" fill="#667565" d="M 129.5,287.5 C 129.833,287.5 130.167,287.5 130.5,287.5C 129.327,289.504 127.66,291.004 125.5,292C 120.648,292.815 115.981,292.648 111.5,291.5C 115.514,291.666 119.514,291.499 123.5,291C 124.737,290.768 125.737,290.268 126.5,289.5C 127.222,288.449 128.222,287.782 129.5,287.5 Z"/></g>
<g><path style="opacity:0.306" fill="#787d6d" d="M 201.5,287.5 C 202.959,287.433 204.292,287.766 205.5,288.5C 206.058,289.79 207.058,290.623 208.5,291C 211.167,291.667 213.833,291.667 216.5,291C 218.405,289.579 220.405,288.412 222.5,287.5C 221.89,288.391 221.557,289.391 221.5,290.5C 215.121,293.276 208.788,293.109 202.5,290C 201.748,289.329 201.414,288.496 201.5,287.5 Z"/></g>
<g><path style="opacity:0.553" fill="#65726e" d="M 255.5,289.5 C 256.167,289.5 256.833,289.5 257.5,289.5C 257.5,289.833 257.5,290.167 257.5,290.5C 259.265,291.461 261.265,291.795 263.5,291.5C 261.507,293.958 259.174,294.125 256.5,292C 255.748,291.329 255.414,290.496 255.5,289.5 Z"/></g>
<g><path style="opacity:0.325" fill="#5a6d63" d="M 305.5,281.5 C 306.978,281.238 308.311,281.571 309.5,282.5C 311.167,285.167 312.833,287.833 314.5,290.5C 316.833,291.833 319.167,291.833 321.5,290.5C 321.145,289.478 320.478,288.811 319.5,288.5C 319.5,287.833 319.5,287.167 319.5,286.5C 323.573,288.805 323.906,291.138 320.5,293.5C 318.224,292.787 315.891,292.287 313.5,292C 311.959,289.084 310.293,286.251 308.5,283.5C 307.575,282.438 306.575,282.438 305.5,283.5C 305.5,282.833 305.5,282.167 305.5,281.5 Z"/></g>
<g><path style="opacity:0.325" fill="#5b6e62" d="M 335.5,278.5 C 334.699,282.897 333.699,287.231 332.5,291.5C 334.415,291.784 336.081,291.451 337.5,290.5C 338.249,289.469 338.915,288.302 339.5,287C 341.333,286.833 343.167,286.667 345,286.5C 347.295,286.547 349.129,287.213 350.5,288.5C 347.272,287.586 343.939,287.253 340.5,287.5C 340.264,291.397 338.097,293.397 334,293.5C 332.379,293.275 331.212,292.442 330.5,291C 332.082,286.688 333.749,282.522 335.5,278.5 Z"/></g>
<g><path style="opacity:0.31" fill="#4b6867" d="M 358.5,287.5 C 359.635,293.298 357.302,294.798 351.5,292C 350.663,290.989 350.33,289.822 350.5,288.5C 351.167,289.167 351.833,289.833 352.5,290.5C 353.919,291.451 355.585,291.784 357.5,291.5C 358.434,290.432 358.768,289.099 358.5,287.5 Z"/></g>
<g><path style="opacity:0.322" fill="#5d6e69" d="M 373.5,290.5 C 374.833,290.5 376.167,290.5 377.5,290.5C 380.625,291.479 383.958,291.813 387.5,291.5C 385.696,292.162 383.696,292.495 381.5,292.5C 378.473,292.713 375.807,292.047 373.5,290.5 Z"/></g>
<g><path style="opacity:0.298" fill="#5f7066" d="M 425.5,289.5 C 424.942,290.79 423.942,291.623 422.5,292C 420.5,292.167 418.5,292.333 416.5,292.5C 413.473,292.713 410.807,292.047 408.5,290.5C 412.89,291.597 417.223,291.597 421.5,290.5C 422.833,290.167 424.167,289.833 425.5,289.5 Z"/></g>
<g><path style="opacity:0.094" fill="#586c65" d="M 487.5,265.5 C 488.167,269.5 488.833,273.5 489.5,277.5C 489.879,282.297 489.379,286.964 488,291.5C 484.838,294.17 482.005,293.837 479.5,290.5C 480.167,290.5 480.833,290.5 481.5,290.5C 483.223,291.807 485.057,291.807 487,290.5C 487.5,282.173 487.666,273.84 487.5,265.5 Z"/></g>
</svg>
